<?xml version="1.0" encoding="UTF-8" standalone="no"?>
<svg
   xmlns:dc="http://purl.org/dc/elements/1.1/"
   xmlns:cc="http://creativecommons.org/ns#"
   xmlns:rdf="http://www.w3.org/1999/02/22-rdf-syntax-ns#"
   xmlns:svg="http://www.w3.org/2000/svg"
   xmlns="http://www.w3.org/2000/svg"
   xmlns:sodipodi="http://sodipodi.sourceforge.net/DTD/sodipodi-0.dtd"
   xmlns:inkscape="http://www.inkscape.org/namespaces/inkscape"
   aria-hidden="true"
   role="img"
   class="iconify iconify--logos"
   width="31.88"
   height="32"
   preserveAspectRatio="xMidYMid meet"
   viewBox="0 0 256 257"
   version="1.1"
   id="svg20"
   sodipodi:docname="favicon.svg"
   inkscape:version="1.0.2 (e86c870879, 2021-01-15)">
  <metadata
     id="metadata24">
    <rdf:RDF>
      <cc:Work
         rdf:about="">
        <dc:format>image/svg+xml</dc:format>
        <dc:type
           rdf:resource="http://purl.org/dc/dcmitype/StillImage" />
      </cc:Work>
    </rdf:RDF>
  </metadata>
  <sodipodi:namedview
     pagecolor="#ffffff"
     bordercolor="#666666"
     borderopacity="1"
     objecttolerance="10"
     gridtolerance="10"
     guidetolerance="10"
     inkscape:pageopacity="0"
     inkscape:pageshadow="2"
     inkscape:window-width="1280"
     inkscape:window-height="950"
     id="namedview22"
     showgrid="false"
     inkscape:zoom="2.7358259"
     inkscape:cx="30.409087"
     inkscape:cy="33.23543"
     inkscape:window-x="0"
     inkscape:window-y="0"
     inkscape:window-maximized="1"
     inkscape:current-layer="svg20"
     inkscape:document-rotation="0" />
  <defs
     id="defs14">
    <linearGradient
       id="IconifyId1813088fe1fbc01fb466"
       x1="-.828%"
       x2="57.636%"
       y1="7.652%"
       y2="78.411%">
      <stop
         offset="0%"
         stop-color="#41D1FF"
         id="stop2" />
      <stop
         offset="100%"
         stop-color="#BD34FE"
         id="stop4" />
    </linearGradient>
    <linearGradient
       id="IconifyId1813088fe1fbc01fb467"
       x1="43.376%"
       x2="50.316%"
       y1="2.242%"
       y2="89.03%">
      <stop
         offset="0%"
         stop-color="#FFEA83"
         id="stop7" />
      <stop
         offset="8.333%"
         stop-color="#FFDD35"
         id="stop9" />
      <stop
         offset="100%"
         stop-color="#FFA800"
         id="stop11" />
    </linearGradient>
  </defs>
  <g
     id="g1326-2-4"
     transform="matrix(13.10492,0,0,13.10492,-1144.8981,-599.1157)"
     inkscape:export-filename="/home/tony/text166-5-0-5.png"
     inkscape:export-xdpi="96"
     inkscape:export-ydpi="96">
    <path
       id="path156-3-4-0"
       style="fill:#ec431e;fill-opacity:1;stroke:none;stroke-width:0.208954px;stroke-linecap:butt;stroke-linejoin:miter;stroke-opacity:1"
       d="m 98.153277,53.478346 c -4.718971,5.512454 -1.142214,8.000683 1.634527,8.211902 0.988976,0.04579 0.773356,0.715786 0.374136,0.652675 -0.524779,-0.08297 -0.355702,0.02531 -0.483692,0.182935 -0.75044,0.844008 -1.546188,0.221382 -2.403986,0.06666 0.290388,0.281199 4.148218,4.241699 3.277318,1.272791 -0.0591,-0.75384 0.82655,-0.253807 1.04645,-0.09664 0.64864,0.463621 3.02555,-0.888034 2.18643,-3.958416 -0.26889,-1.33926 0.50725,-0.993222 0.89607,-1.008723 -0.67139,-1.595091 -1.9335,-0.836811 -2.31252,0.869198 -0.12182,0.78513 -0.85443,0.573154 -0.66973,-0.02119 0.2663,-1.049128 0.0864,-1.479671 -1.13171,-1.764233 -2.550054,-0.634781 -2.319392,-2.528237 -2.413293,-4.406967 z m 5.636863,4.573366 a 0.20224045,0.20224045 0 0 1 0.006,0 0.20224045,0.20224045 0 0 1 0.20257,0.202054 0.20224045,0.20224045 0 0 1 -0.20257,0.202573 0.20224045,0.20224045 0 0 1 -0.20205,-0.202573 0.20224045,0.20224045 0 0 1 0.19585,-0.202054 z" />
    <path
       style="opacity:1;fill:#28324e;fill-opacity:1;stroke:none;stroke-width:0.265;stroke-linecap:butt;stroke-linejoin:miter;stroke-miterlimit:4;stroke-dasharray:none;stroke-opacity:1"
       d="M 95.987561,64.882753 C 82.101531,53.01524 101.79547,41.130126 106.3453,57.551179 106.82256,45.754345 96.149921,43.986711 91.335841,48.502937 c -5.11466,4.798214 -5.04654,13.416893 4.65172,16.379816 z"
       id="path154-6-5-8"
       sodipodi:nodetypes="ccsc" />
    <path
       style="opacity:1;fill:#003d71;fill-opacity:1;stroke:none;stroke-width:0.145187px;stroke-linecap:butt;stroke-linejoin:miter;stroke-opacity:1"
       d="m 93.389781,59.984086 c -0.64573,-8.945098 7.732239,-9.390943 11.213599,-2.896542 -0.90131,-5.342548 -5.269759,-6.902459 -9.007299,-5.38695 -2.57006,1.042113 -4.18842,4.736897 -2.2063,8.283492 z"
       id="path154-6-7-8-4"
       sodipodi:nodetypes="ccsc" />
  </g>
</svg>
